<mxfile host="65bd71144e">
    <diagram id="uylDJdGTQgp-Q8T-UTCu" name="Página-1">
        <mxGraphModel dx="974" dy="430" grid="1" gridSize="10" guides="1" tooltips="1" connect="1" arrows="1" fold="1" page="1" pageScale="1" pageWidth="827" pageHeight="1169" math="0" shadow="0">
            <root>
                <mxCell id="0"/>
                <mxCell id="1" parent="0"/>
                <mxCell id="2" value="" style="rounded=0;whiteSpace=wrap;html=1;" vertex="1" parent="1">
                    <mxGeometry x="140" y="280" width="330" height="170" as="geometry"/>
                </mxCell>
                <mxCell id="3" value="&lt;div style=&quot;text-align: center&quot;&gt;&lt;span&gt;ELEVATORWELL&lt;/span&gt;&lt;/div&gt;&lt;br&gt;- persona: string&lt;br&gt;- piso : int&lt;br&gt;&lt;br&gt;+ &amp;lt;&amp;lt;constructor&amp;gt;&amp;gt;ELEVATORWELL()&lt;br&gt;+ encenderAscensor(): void&lt;br&gt;+ apagarAscensor(): void&lt;br&gt;+ interfazElevador(): void&lt;br&gt;+ subir_BajarPiso(): void {Piso máximo:15, Piso mínimo: 1}" style="text;whiteSpace=wrap;html=1;" vertex="1" parent="1">
                    <mxGeometry x="140" y="280" width="330" height="210" as="geometry"/>
                </mxCell>
                <mxCell id="4" value="" style="endArrow=none;html=1;exitX=0.006;exitY=0.327;exitDx=0;exitDy=0;entryX=0.998;entryY=0.321;entryDx=0;entryDy=0;entryPerimeter=0;exitPerimeter=0;" edge="1" parent="1" source="3" target="3">
                    <mxGeometry width="50" height="50" relative="1" as="geometry">
                        <mxPoint x="100" y="160" as="sourcePoint"/>
                        <mxPoint x="150" y="110" as="targetPoint"/>
                    </mxGeometry>
                </mxCell>
                <mxCell id="5" value="" style="endArrow=none;html=1;exitX=-0.006;exitY=0.143;exitDx=0;exitDy=0;exitPerimeter=0;entryX=0.999;entryY=0.158;entryDx=0;entryDy=0;entryPerimeter=0;" edge="1" parent="1" source="3" target="3">
                    <mxGeometry width="50" height="50" relative="1" as="geometry">
                        <mxPoint x="100" y="160" as="sourcePoint"/>
                        <mxPoint x="620" y="70" as="targetPoint"/>
                    </mxGeometry>
                </mxCell>
            </root>
        </mxGraphModel>
    </diagram>
</mxfile>